<?xml version="1.0" encoding="utf-8"?>
<!-- Generator: Adobe Illustrator 16.0.0, SVG Export Plug-In . SVG Version: 6.00 Build 0)  -->
<!DOCTYPE svg PUBLIC "-//W3C//DTD SVG 1.1//EN" "http://www.w3.org/Graphics/SVG/1.1/DTD/svg11.dtd">
<svg version="1.1" id="Layer_1" xmlns="http://www.w3.org/2000/svg" xmlns:xlink="http://www.w3.org/1999/xlink" x="0px" y="0px"
	 width="612px" height="792px" viewBox="0 0 612 792" enable-background="new 0 0 612 792" xml:space="preserve">
<g>
	<g>
		<path fill="#491020" d="M287.611,420.136c4.879,5.328,13.927,8.002,20.624,4.669c7.325-3.646,11.656-9.769,7.695-17.968
			c-2.56-5.295-10.388-7.204-15.713-6.769c-7.21,0.591-14.911,4.656-16.643,12.182c-3.834,16.659,22.6,21.586,30.376,9.43
			c3.78-5.909,1.979-14-4.189-17.555c-4.253-2.451-9.169-3.13-14.001-3.37c-15.642-0.778-27.085,22.035-11.255,30.404
			c6.107,3.229,12.792,2.726,18.909-0.046c8.159-3.696,9.477-15.651,3.704-21.783c-7-7.436-20.044-9.48-29.164-5.18
			c-5.114,2.411-7.854,7.483-8.03,12.987c-0.23,7.215,5.422,13.574,11.205,17.04c5.277,3.161,11.018,3.22,16.863,2.413
			c5.99-0.826,12.937-6.588,12.254-13.22c-1.44-13.992-19.552-22.249-32.156-17.689c-7.549,2.73-11.387,9.861-10.207,17.622
			c0.968,6.374,5.706,11.198,10.608,14.908c5.003,3.787,13.69,3.927,19.667,3.729c8.158-0.271,15.712-7.839,13.109-16.42
			c-1.823-6.014-6.427-8.976-11.849-11.388c-7.272-3.234-13.86-4.896-21.84-4.784c-5.458,0.077-11.66,1.732-14.3,7.016
			c-4.317,8.64,2.568,16.024,9.472,20.431c9.786,6.244,24.494,5.726,33.562-1.57c6.099-4.907,3.698-13.696-0.663-18.658
			c-4.279-4.868-10.455-7.72-16.658-9.236c-5.422-1.326-13.467-2.065-18.488,0.883c-7.826,4.594-7.861,13.766-4.495,21.296
			c5.739,12.84,22.221,18.252,34.482,11.355c6.052-3.403,8.845-11.484,6.401-17.896c-2.29-6.008-7.405-10.538-13.174-13.188
			c-12.164-5.588-31.985,0.337-27.978,17.065c7.411,30.936,62.967,14.826,56.243-14.561c-1.732-7.575-9.895-11.357-16.842-12.009
			c-6.747-0.632-15.043,3.724-18.987,8.917c-4.243,5.586-1.697,13.483,3.801,17.08c4.098,2.681,9.431,3.09,14.195,3.11
			c11.331,0.049,22.79-6.027,26.614-17.099c2.321-6.718-1.131-13.886-6.74-17.549c-4.887-3.191-11.783-2.261-17.091-0.945
			c-4.5,1.116-9.516,4.131-12.655,7.471c-5.795,6.166-4.562,15.629,2.678,19.995c2.588,1.561,5.949,1.889,8.887,1.515
			c3.541-0.45,4.631-0.413,8.554-1.354c7.59-1.822,13.239-6.407,18.039-12.282c5.048-6.178,6.872-14.012,2.41-21.12
			c-4.065-6.476-12.063-7.834-18.875-5.436c-5.167,1.82-10.04,4.728-14.021,8.48c-6.27,5.909-7.688,16.741,0.309,21.883
			c12.658,8.141,30.205-3.694,36.968-14.525c4.014-6.427,4.525-13.217,1.37-20.017c-4.03-8.685-15.082-8.157-22.149-4.171
			c-5.444,3.07-9.66,7.993-13.188,13.064c-4.43,6.368-3.915,17.255,3.462,21.358c11.962,6.651,25.478-5.158,30.823-15.201
			c3.206-6.023,4.87-15.586-0.701-20.87c-6.122-5.807-14.104-4.473-20.755-0.303c-5.499,3.449-10.121,9.129-12.708,15.045
			c-1.685,3.854-2.676,7.958-1.206,12.046c1.407,3.914,5.152,8.612,9.625,9.223c15.136,2.066,32.343-15.082,28.537-30.73
			c-1.875-7.708-8.413-13.012-16.52-10.318c-6.051,2.011-10.412,8.183-12.38,14.024c-1.96,5.819-0.849,14.29,5.449,17.214
			c7.776,3.609,15.276,1.276,21.173-4.647c4.799-4.822,7.761-11.63,7.708-18.418c-0.054-6.868-4.953-15.581-12.937-14.834
			c-7.567,0.708-13.308,5.592-15.563,12.912c-2.062,6.695-1.085,14.065,4.903,18.368c12.247,8.8,30.943-11.63,22.706-23.435
			c-4.68-6.707-12.147-8.398-19.505-4.937c-5.294,2.491-10.186,7.599-11.01,13.58c-1.182,8.569,4.041,14.976,12.714,15.48
			c6.362,0.37,13.103-4.621,16.615-9.475c4.46-6.162,3.825-14.321-1.653-19.622c-6.3-6.095-14.796-3.864-20.625,1.358
			c-5.783,5.18-6.891,12.879-3.687,19.66c3.643,7.709,14.379,7.717,20.626,3.868c12.337-7.603,9.986-25.995-3.07-31.018
			c-12.699-4.885-20.954,14.401-17.143,23.95c1.677,4.202,4.815,7.342,9.643,7.342c4.062,0,8.967-3.015,9.643-7.342
			c0.829-5.308,1.111-12.16-4.737-14.931c-4.926-2.334-10.752-1.413-13.682,3.587c-2.573,4.394-1.338,11.348,3.588,13.682
			c0.076,0.036,0.152,0.072,0.228,0.108c-1.531-1.992-3.063-3.984-4.595-5.976c-0.635-3.47-0.682,2.022-0.087-1.787
			c6.429,0,12.856,0,19.285,0c-0.325-1.012-0.389-0.889-0.19,0.368c-0.292-2.525-0.537,1.535,0.012-1.135
			c0.381-1.15,0.371-1.263-0.029-0.339c0.146-0.262,0.293-0.523,0.44-0.785c-2.567,3.448-6.148,3.578-10.743,0.387
			c-0.5-0.67-0.432-1.88,0.122-2.488c2.652-2.911,5.235,8.672,9.502,6.41c-1.682,0.455-3.364,0.91-5.047,1.365
			c-2.032-2.375-3.481-4.998-4.349-7.868c0.558-0.381,0.444-0.291-0.34,0.271c-1.531,1.125,0.129,0.076,1.169,0.43
			c1.472,0.857,2.942,1.715,4.413,2.572c0.421,0.642,0.842,1.284,1.263,1.926c0,1.772,0,3.544,0,5.316
			c0.808-5.862-0.047-0.643,0.238-0.943c-0.464,0.58-0.267,0.508,0.59-0.218c-1.078,0.826-2.384,0.816-3.917-0.03
			c-1.196-1.196-2.392-2.392-3.588-3.587c-0.09-1.35-0.18-2.701-0.27-4.051c-0.832,1.305-0.896,1.542-0.19,0.711
			c-1.896,2.355,2.367-0.221-0.207,0.125c1.772,0,3.545,0,5.317,0c0.215,0.065,0.43,0.131,0.645,0.197
			c1.195,1.196,2.392,2.392,3.587,3.587c0.123,0.719,0.247,1.438,0.37,2.157c0.042-1.326,0.036-1.457-0.019-0.393
			c-0.052,0.027-0.103,0.054-0.154,0.081c2.052-2.962-0.146-2.989-6.593-0.079c-1.195-1.196-2.392-2.392-3.588-3.587
			c-1.009-1.426,0.104,1.281-0.102-0.943c0.121,1.31,0.075,1.154-0.32,1.984c0.117-0.247-2.17,3.056-1.53,2.292
			c-0.242,0.5-0.596,0.828-1.062,0.98c1.747-0.183,1.754-0.312,0.02-0.39c1.683,0.455,3.365,0.91,5.047,1.365
			c1.922,1.773,2.742,3.755,2.462,5.947c-0.418,0.688-0.324,0.48,0.281-0.624c0.354-0.635,0.742-1.249,1.163-1.841
			c-0.119,0.169-0.239,0.338-0.358,0.507c1.922-1.797,0.323-1.503-4.797,0.882c-1.471-0.857-2.941-1.714-4.412-2.572
			c0.214,0.241,0.428,0.481,0.641,0.721c-0.856-1.471-1.714-2.941-2.571-4.413c1.323,4.161-3.701,8.1-7.342,8.914
			c1.772,0,3.544,0,5.316,0c0.991,6.846,2.198,8.635,3.621,5.365c0.473-0.853,0.988-1.678,1.546-2.478
			c0.979-1.483,2.472-2.658,3.953-3.587c2.708-1.698-5.643-8.891-7.148-5.414c-0.893,2.062-2.303,3.613-3.847,5.196
			c0.336-0.344-1.635,1.23-2.17,1.555c-1.112,0.535-1.322,0.675-0.63,0.419c-4.608,1.823,4.295,11.39,6.899,6.862
			c0.84-1.458,2.326-2.81,3.515-4.001c0.411-0.409,0.833-0.806,1.266-1.193c1.243-0.895,2.393-0.37,0.194-0.972
			c-1.471-0.857-2.942-1.714-4.413-2.571c0.225,0.184-0.015-2.586-0.445-1.618c-0.884,1.987-2.139,3.355-3.7,4.821
			c-1.107,1.04-2.681,1.716-4.02,2.395c-0.641,0.317-1.298,0.591-1.973,0.823c-3.093,1.176-1.351,0.117-0.599,0.601
			c1.195,1.196,2.392,2.392,3.587,3.587c-0.215-0.315-0.431-0.631-0.646-0.945c0.455,1.682,0.91,3.364,1.365,5.047
			c0.037,1.407-1.455,2.676,0.331,0.992c0.556-0.523,2.027-1.236,2.91-1.719c0.395-0.216,3.071-1.363,2.458-1.147
			c1.82-0.376,1.406-0.491-1.242-0.347c-2.795-1.273-3.965-3.06-3.51-5.358c-1.54,2.83-4.089,4.789-7.036,5.887
			c-2.06,0.767-3.94,0.733-6.061,1.197c-0.864,0.167-0.729,0.175,0.403,0.023c-1.81-0.013-1.349,0.202,1.383,0.645
			c1.195,1.195,2.392,2.392,3.588,3.587c3.559,4.955-3.241,9.136-0.16,7.209c0.878-0.55,1.829-0.99,2.762-1.437
			c2.481-1.189-2.153,0.658,0.618-0.028c0.625-0.147,1.254-0.271,1.888-0.374c-0.983,0.162-0.865,0.198,0.354,0.109
			c-2.124,0.052-5.309-4.154-3.754-5.926c-1.422,1.62-3.592,2.216-5.591,2.732c-1.565,0.404,2.935-0.301,0.589-0.113
			c-0.812,0.065-1.627,0.076-2.441,0.09c-0.932,0.016-1.862-0.03-2.792-0.08c-1.221-0.115-1.26-0.106-0.116,0.024
			c-0.561-0.1-1.113-0.233-1.657-0.4c5.351,1.475-2.434,14.989,3.292,11.948c-0.816,0.434,2.606-0.788,2.054-0.642
			c-2.402,0.638-1.267-5.006-2.826-2.115c-1.879,3.485-8.732,4.792-12.179,5.504c-0.926,0.19-2.131,0.066-3.069,0.046
			c-1.559-0.035-1.871-1.086-0.564,0.008c-3.222-2.696,1.417-2.024-2.414,2.867c-1.417,1.809-3.367,0.891,0.009,0.958
			c3.225,0.063-1.365-0.363,1.251,0.214c-1.775-0.392,1.189,0.743,1.395,0.864c1.548,0.914,0.426,0.171,1.71,1.412
			c-1.847-1.784,0.429-5.633,2.348-6.374c-1.399,0.54-3.593,0.277-4.585-0.277c-0.621-0.348-2.298-3.185-2.406-2.474
			c-0.857,1.471-1.715,2.941-2.572,4.413c-3.375,0.938-3.913,1.294-1.612,1.064c0.72-0.057,1.439-0.066,2.16-0.027
			c1.194,0.024,1.742,0.21,3.357,0.604c1.349,0.33,2.525,0.783,3.746,1.414c2.956,1.525,0.944,2.265,1.279-1.317
			c0.455-1.682,0.91-3.364,1.365-5.047c0.411-0.913,3.39-2.194,1.282-1.557c-0.625,0.171-1.255,0.315-1.891,0.436
			c-2.895,0.605,1.796-0.127-0.435,0.049c-2.117,0.167-3.527,0.241-5.536-0.378c-0.633-0.331-1.266-0.663-1.897-0.997
			c-2.847-1.499-0.792-2.154-0.932,1.887c-0.455,1.682-0.91,3.364-1.365,5.047c-1.131,2.039-2.664,3.035-4.598,2.987
			c0.542-0.054,1.085-0.086,1.629-0.098c2.203-0.087,4.17-0.207,6.328,0.255c2.132,0.457,4.216,1.264,6.203,2.148
			c0.653,0.276,1.301,0.564,1.944,0.863c0.346,0.174,0.693,0.349,1.039,0.522c3.061,2.111,2.742-0.271-0.958-7.146
			c1.196-1.196,2.392-2.392,3.587-3.588c2.173-1.442,3.239-0.432,0.52-0.43c-2.045,0.002-3.955-0.105-5.952-0.514
			c-2.073-0.425-2.782-1.834-2.967-2.457c0.521,1.756-0.805,5.341-2.409,5.462c1.62-0.123,1.55-0.271,2.692,0.258
			c1.16,0.537,2.575,1.162,3.559,1.987c-1.359-5.508-0.259-8.785,3.301-9.832c-0.586,0.187-1.184,0.329-1.792,0.428
			c2.114-0.424-0.346-0.121-0.765-0.123c1.464,0.005-1.222-0.596-1.817-0.952c0.828,0.496-1.918,5.298-3.688,5.931
			c2.407-0.86-1.979,0.002,0.759-0.188c0.469-0.033,4.125,0.31,1.958-0.031c1.133,0.179,2.23,0.516,3.309,0.895
			c-1.224-0.535-1.386-0.556-0.487-0.06c1.92,1.168,1.673,0.645-0.741-1.568c0-1.772,0-3.545,0-5.317
			c0.819-0.704,1.589-1.457,2.308-2.259c0.608-0.17,1.434,0.185-0.118-0.366c3.453,2.414,4.223,5.066,2.311,7.958
			c0.468-0.592,0.193-0.29,1.495-0.646c-1.117,0.166-1.187,0.249-0.21,0.248c2.654,0.177-2.2-0.428,0.835,0.09
			c0.628,0.116,1.249,0.265,1.862,0.444c-0.497-0.133-2.154-1.92-1.04-0.533c-0.857-1.472-1.715-2.942-2.572-4.413
			c1.261-2.626,2.523-5.252,3.784-7.878c0.759,0.008,0.54,0.02-0.659,0.033c0.319,0.057,0.639,0.114,0.958,0.171
			c-2.482-0.873-1.582,0.297,2.702,3.509c0,1.772,0,3.545,0,5.316c-0.266,1.652-0.979,2.543-2.142,2.672
			c1.378-0.329,1.503-0.41,0.374-0.241c0.959,0.031,0.953-0.021-0.021-0.156c2.256,0.688,1.572-0.033-2.052-2.165
			c-0.336-2.568-0.672-5.137-1.008-7.705c-0.081,0.309-0.162,0.618-0.243,0.927c0.857-1.471,1.714-2.942,2.572-4.413
			c0.824-0.379,0.657-0.291-0.502,0.265c-0.579,0.233-1.145,0.495-1.698,0.786c1.683-0.455,3.365-0.91,5.047-1.365
			c-5.259,0.02-1.023,0.272-1.434-0.177C293.026,396.462,278.921,410.645,287.611,420.136L287.611,420.136z"/>
	</g>
</g>
<g>
	<g>
		<path fill="#491020" d="M338.746,385.218c0.162,0.04,0.324,0.08,0.486,0.119c-2.328-2.328-4.656-4.656-6.984-6.984
			c0.587,2.794,2.215,4.75,4.04,6.831c-0.857-3.243-1.714-6.486-2.571-9.729c-0.363,1.488-0.839,3.065-0.831,4.6
			c0.004,0.687,0.007,1.375,0.011,2.062c0.418-1.379,0.276-1.32-0.425,0.178c-2.065,3.666-3.846,7.692-5.753,11.462
			c-3.786,7.487-7.458,13.61-13.34,19.638c-4.589,4.704-8.572,9.148-15.441,9.497c-3.769,0.19-7.408,0.055-11.077-0.821
			c-3.684-0.879-5.439-2.965-8.062-5.447c-2.881-2.726,0.697-2.242-2.734,0.336c1.04-0.781,3.357-1.361,5.712-1.782
			c8.403-1.503,16.289-1.438,23.592-6.408c2.914-1.983,5.888-3.901,8.769-5.93c3.617-2.546,5.968-5.623,8.565-9.122
			c0.883-1.189,1.585-2.507,2.408-3.739c0.61-0.861,1.172-1.753,1.683-2.677c1.176-2.649,1.375-3.171,0.6-1.566
			c1.643-1.939,3.283-3.817,4.799-5.866c1.15-1.555,1.503-2.865,3.029-4.06c-1.471,0.857-2.942,1.714-4.413,2.571
			c-1.353,0.372,2.094-0.033,2.068-0.033c7.722,0.117,0.934-0.535,0.357-1.728c-0.455-1.683-0.91-3.365-1.365-5.047
			c0.206,2.119-0.027,5.569,0.511,8.356c0-1.772,0-3.544,0-5.316c-0.321,1.753-0.564,3.425-0.466,5.206
			c0.455-1.683,0.91-3.365,1.365-5.047c-1.374,2.886-3.283,5.168-5.416,7.595c-8.477,9.646,5.612,23.849,14.143,14.143
			c3.715-4.228,10.247-10.596,9.908-16.69c0.021,0.387-0.177-4.833-0.249-5.206c0.571,2.96,0.277-2.29,0.204-3.04
			c-0.444-4.564-2.691-8.153-6.345-10.841c-2.909-2.14-6.608-2.974-10.178-2.746c-2.859,0.183-5.826,0.004-8.691,0.791
			c-7.243,1.988-10.014,8.816-14.488,14.096c-3.42,4.037-4.907,9.578-8.839,13.221c-1.902,1.762-4.663,2.981-6.783,4.501
			c-1.778,1.275-3.771,3.127-5.972,3.217c-5.906,0.242-12.587,1.382-18.286,3.052c-6.154,1.803-11.271,5.733-13.624,11.781
			c-4.775,12.271,6.539,25.889,17.168,30.596c12.759,5.651,30.083,5.68,41.652-2.659c10.432-7.519,19.176-18.111,24.939-29.51
			c3.192-6.314,7.539-12.792,9.588-19.595c0.531-1.764,0.737-3.527,0.888-5.36c0.275-3.352-0.789,2.32,0.105-1.345
			c1.147-4.701-1.009-7.818-3.846-11.223c0.856,1.471,1.714,2.942,2.571,4.413c-0.064-0.308-0.13-0.616-0.194-0.924
			c-0.688-3.277-3.785-6.201-6.984-6.984c-0.162-0.04-0.324-0.08-0.486-0.119C331.536,362.864,326.223,382.15,338.746,385.218
			L338.746,385.218z"/>
	</g>
</g>
<g opacity="0.2">
	<g>
		<path fill="#200C15" d="M291.268,394.425c-3.456,1.701-7.361,1.548-10.908,2.601c-2.749,0.816-2.148,4.797,0.665,4.911
			c3.732,0.152,10.707-0.664,13.738-2.957c1.822-1.379,1.467-4.745-1.262-4.659c-5.534,0.174-10.971,2.567-16.599,2.638
			c0,1.667,0,3.333,0,5c5.753-0.342,11.39-1.031,16.521-3.822c2.522-1.371,0.786-5.305-1.926-4.569
			c-3.472,0.942-6.984,0.868-10.496,1.491c-1.222,0.217-5,2.123-5.983,1.882c0.199,1.523,0.398,3.046,0.597,4.569
			c4.476-2.117,10.465-2.25,15.269-3.594c3.125-0.875,1.806-5.481-1.329-4.822c-4.168,0.877-8.108,1.812-12.179,3.046
			c-2.031,0.616-4.286,0.592-6.353,1.179c-1.028,0.292-3.762,1.848-2.782,2.085c0.368,1.394,0.735,2.786,1.103,4.179
			c0.972-1.189,3.11-1.306,4.494-1.746c2.722-0.867,5.312-2.081,8.049-2.914c5.116-1.557,10.047-3.078,14.417-6.258
			c2.263-1.647,0.952-5.2-1.926-4.569c-3.831,0.839-5.733,3.886-8.225,6.625c-1.32,1.45-0.7,3.541,1.103,4.179
			c7.111,2.512,14.717-6.529,18.867-11.042c2.003-2.178-0.493-5.093-3.029-3.926c-4.022,1.85-7.576,5.967-10.4,9.299
			c-1.745,2.058,0.5,5.55,3.029,3.926c3.409-2.188,6.391-4.747,9.19-7.674c2.72-2.843,4.735-6.841,7.717-9.3
			c2.207-1.82-0.663-5.439-3.029-3.926c-4.076,2.606-5.04,7.958-7.843,11.468c1.309,1.01,2.618,2.02,3.926,3.029
			c4.455-5.894,10.014-10.928,12.283-18.249c-1.607-0.443-3.215-0.886-4.822-1.329c-0.844,4.056-3.988,7.129-5.275,11.065
			c-0.875,2.675,3.34,4.491,4.569,1.926c2.908-6.061,7.86-10.922,10.82-16.916c1.194-2.418-1.958-5.284-3.926-3.029
			c-3.416,3.911-4.473,9.119-7.81,13.019c-3.75,4.381-6.051,9.949-10.564,13.757c-4.652,3.925-9.647,6.722-15.241,9.052
			c-5.181,2.158-10.043,1.133-15.345,0.466c0.222,1.637,0.443,3.273,0.665,4.911c6.013-2.215,12.392-3.303,18.418-5.649
			c5.922-2.306,11.309-5.515,16.527-9.114c4.022-2.773,6.801-7.27,8.986-11.552c1.43-2.804,2.538-5.808,4.313-8.417
			c1.185-1.739,2.604-5.334,4.515-6.314c-1.01-0.13-2.02-0.261-3.029-0.391c-0.122-0.388-0.243-0.775-0.365-1.163
			c0.016,3.224,5.016,3.225,5,0c-0.005-1.026-0.369-1.68-1.1-2.372c-0.853-0.808-2.001-0.919-3.029-0.391
			c-3.3,1.692-5.046,6.254-7.036,9.177c-3.416,5.019-4.902,10.749-8.956,15.481c-4.008,4.679-11.592,7.935-17.154,10.234
			c-5.989,2.477-12.398,3.432-18.418,5.648c-2.76,1.017-2.12,4.561,0.665,4.911c5.512,0.693,9.62,1.43,15.094-0.169
			c6.062-1.771,10.713-5.09,15.954-8.342c4.881-3.029,8.464-8.243,11.682-12.877c1.717-2.473,3.484-5.029,4.947-7.661
			c1.646-2.961,2.536-6.096,4.817-8.709c-1.309-1.01-2.617-2.02-3.926-3.029c-2.961,5.994-7.913,10.855-10.82,16.916
			c1.522,0.642,3.046,1.284,4.569,1.926c1.298-3.97,4.407-6.895,5.275-11.065c0.654-3.144-3.862-4.425-4.822-1.329
			c-2.104,6.787-7.643,11.582-11.778,17.054c-1.708,2.26,2.161,5.24,3.926,3.029c2.424-3.035,3.413-8.5,6.832-10.686
			c-1.01-1.309-2.02-2.618-3.029-3.926c-2.675,2.206-4.34,5.503-6.623,8.1c-2.746,3.123-5.769,5.843-9.272,8.092
			c1.01,1.309,2.02,2.618,3.029,3.926c2.551-3.009,5.759-6.847,9.388-8.517c-1.01-1.309-2.02-2.618-3.029-3.926
			c-2.618,2.846-9.408,11.379-14.002,9.756c0.368,1.393,0.735,2.786,1.103,4.178c1.786-1.961,3.262-4.735,6.019-5.338
			c-0.642-1.523-1.284-3.046-1.926-4.569c-5.029,3.66-10.842,4.743-16.547,6.884c-3.362,1.262-9.066,1.929-11.425,4.817
			c-1.125,1.378-0.877,3.697,1.103,4.179c0.794,0.192,1.679,0.373,2.413-0.135c2.623-1.812,4.769-2.202,7.874-2.826
			c4.584-0.922,9.077-2.38,13.686-3.35c-0.443-1.607-0.886-3.215-1.329-4.822c-5.357,1.499-11.442,1.723-16.463,4.099
			c-1.983,0.938-1.4,4.08,0.597,4.569c2,0.489,3.389-0.35,5.204-1.112c4.218-1.774,9.483-1.054,13.933-2.261
			c-0.642-1.523-1.284-3.047-1.926-4.57c-4.344,2.362-9.136,2.851-13.998,3.139c-3.192,0.189-3.247,5.041,0,5
			c5.625-0.071,11.087-2.465,16.599-2.639c-0.42-1.553-0.841-3.105-1.262-4.658c-2.273,1.719-8.418,2.389-11.214,2.274
			c0.222,1.637,0.443,3.273,0.665,4.911c3.944-1.172,8.244-1.206,12.102-3.105C296.684,397.317,294.149,393.006,291.268,394.425
			L291.268,394.425z"/>
	</g>
</g>
<g opacity="0.2">
	<g>
		<path fill="#200C15" d="M290.29,400.345c3.618-0.566,7.087-4.564,9.9-6.731c2.543-1.959,5.716-5.204,7.284-8.087
			c1.552-2.854-2.536-5.188-4.317-2.523c-2.017,3.018-4.349,5.74-6.972,8.247c-1.352,1.292-7.921,5.894-9.907,4.428
			c-0.42,1.553-0.841,3.106-1.262,4.659c13.506-1.282,24.992-12.387,30.895-24.074c1.45-2.87-2.863-5.402-4.316-2.523
			c-4.982,9.864-14.998,20.499-26.578,21.598c-2.561,0.243-3.303,3.152-1.262,4.659c3.298,2.433,8.77-0.611,11.797-2.171
			c5.021-2.586,8.86-7.716,11.923-12.299c-1.439-0.841-2.878-1.682-4.317-2.523c-1.151,2.117-3.313,3.635-4.905,5.407
			c-1.869,2.081-6.397,6.661-9.291,7.113C285.783,396.021,287.137,400.838,290.29,400.345L290.29,400.345z"/>
	</g>
</g>
<g opacity="0.2">
	<g>
		<path fill="#200C15" d="M286.535,400.972c4.76-0.987,8.883-3.736,12.702-6.626c3.606-2.728,7.441-5.612,9.931-9.435
			c1.765-2.711-2.566-5.214-4.318-2.523c-2.188,3.36-5.939,5.979-9.102,8.371c-3.146,2.38-6.637,4.582-10.542,5.392
			C282.05,396.804,283.389,401.624,286.535,400.972L286.535,400.972z"/>
	</g>
</g>
<g opacity="0.2">
	<g>
		<path fill="#200C15" d="M296.09,397.76c4.539-2.657,7.57-6.862,11.707-10.01c-1.01-1.309-2.02-2.618-3.029-3.926
			c-3.129,3.597-6.612,5.974-10.592,8.55c-4.67,3.023-9.043,5.658-14.33,2.25c-0.642,1.523-1.284,3.046-1.926,4.569
			c14.7,2.703,27.576-9.605,36.036-20.233c1.986-2.495-1.527-6.058-3.535-3.535c-7.054,8.861-18.724,21.236-31.171,18.947
			c-2.759-0.507-4.389,2.981-1.926,4.569c4.883,3.147,9.994,3.008,15.048,0.38c5.899-3.066,11.564-6.94,15.933-11.962
			c1.748-2.009-0.643-5.742-3.029-3.926c-4.101,3.12-7.239,7.395-11.707,10.009C290.786,395.069,293.301,399.392,296.09,397.76
			L296.09,397.76z"/>
	</g>
</g>
<g opacity="0.1">
	<g>
		<path fill="#F7A499" d="M282.69,424.548c-0.162-0.039-0.324-0.078-0.486-0.118c-1.417-0.344-3.378,0.73-3.165,2.411
			c0.861,6.788,15.51,9.396,19.593,4.351c3.167-3.914,0.458-7.067-3.339-9.186c-4.275-2.385-9.786-0.922-13.223,2.085
			c-0.616,0.538-0.931,1.657-0.643,2.433c1.875,5.04,6.109,5.806,11.164,5.676c3.388-0.088,8.74-2.578,6.627-6.949
			c-2.215-4.584-7.733-6.3-12.505-6.719c-3.726-0.327-10.858,2.661-10.608,7.325c0.498,9.284,18.242,11.83,23.007,4.464
			c4.633-7.162-6.058-9.965-10.994-11.139c-4.748-1.128-16.004,1.984-12.057,8.854c5.026,8.745,20.636,8.43,27.621,2.689
			c2.531-2.079,2.873-5.894,0.888-8.442c-2.414-3.101-6.653-4.231-10.322-5.028c-5.646-1.226-14.416-1.171-17.97,4.23
			c-3.694,5.613,4.66,10.832,8.869,12.092c7.095,2.125,15.659,0.407,19.77-5.955c3.837-5.938-5.969-11.314-10.153-12.478
			c-5.036-1.398-13.054-1.284-17.132,2.447c-5.353,4.9-1.689,12.548,4.592,14.563c7.668,2.459,16.565,1.562,23.101-3.354
			c5.611-4.22,3.594-10.624-2.537-12.914c-8.082-3.018-19.935-1.362-26.906,3.605c-1.017,0.725-1.321,1.608-1.149,2.823
			c0.523,3.689,1.373,4.416,4.966,5.837c3.883,1.535,7.656,1.809,11.794,2.018c5.984,0.303,15.18,0.263,17.538-6.32
			c0.383-1.07-0.251-2.259-1.148-2.824c-5.298-3.331-12.851-3.577-18.897-2.086c-4.517,1.113-9.769,0.832-10.711,6.513
			c-0.235,1.417,0.355,2.591,1.746,3.076c6.516,2.27,13.769,3.185,20.459,0.713c5.843-2.159,10.669-1.877,14.592-7.376
			c0.768-1.075,0.23-2.827-0.896-3.42c-2.773-1.46-3.19-1.9-6.509-2.119c-3.619-0.238-6.975-0.075-10.535,0.541
			c-6.386,1.104-12.594,2.297-17.123,7.234c-0.837,0.913-0.856,1.94-0.391,3.029c4.376,10.254,25.063,4.752,32.142,0.253
			c3.737-2.376,4.659-5.55,1.783-8.807c-1.179-1.335-3.136-1.563-4.779-1.574c-3.696-0.026-7.521,0.466-11.18,1.009
			c-5.483,0.813-12.651,2.741-16.722,6.812c-2.59,2.589-1.831,7.66,1.266,9.451c8.562,4.95,20.712,1.507,28.351-3.576
			c4.569-3.04,15.836-16.435,3.749-16.935c-7.237-0.299-22.881,6.189-23.704,14.287c-0.397,3.917,4.192,4.894,7.053,4.373
			c5.182-0.941,10.281-3.777,14.381-6.99c4.256-3.334,8.101-7.188,11.198-11.625c1.994-2.854,5.458-6.556,4.402-10.396
			c-0.164-0.425-0.355-0.838-0.576-1.237c-0.355-0.704-1.352-1.335-2.158-1.238c-7.082,0.845-12.754,5.281-18.153,9.657
			c-2.842,2.305-8.895,7.673-6.757,11.954c5.896,11.813,33.403-18.381,34.165-25.698c0.162-1.553-1.73-2.933-3.165-2.411
			c-3.331,1.213-30.136,21.06-21.402,26.176c5.132,3.006,12.611-7.508,15.096-10.456c3.378-4.009,6.402-8.251,9.492-12.474
			c2.055-2.81,4.418-5.87,4.661-9.471c0.14-2.064-2.185-2.882-3.762-2.159c-5.593,2.567-9.729,9.337-13.232,14.185
			c-3.59,4.966-7.621,9.075-8.105,15.492c-0.115,1.521,1.704,2.98,3.165,2.411c5.082-1.983,8.36-7.633,11.262-12.02
			c3.504-5.298,7.312-11.502,9.126-17.601c0.528-1.779-1.265-3.658-3.076-3.075c-1.764,0.568-3.029,1.498-4.164,2.979
			c-2.525,3.297-5.449,6.325-8.14,9.493c-5.604,6.598-11.658,12.853-17.488,19.253c-1.821,1.999,0.646,5.688,3.029,3.927
			c6.242-4.616,11.631-10.019,16.585-15.982c4.772-5.745,9.861-11.254,12.639-18.288c0.906-2.298-2.625-4.328-4.179-2.432
			c-4.268,5.208-7.88,10.884-12.159,16.075c-4.63,5.614-11.604,9.444-17.73,13.171c-6.874,4.183-13.139,3.525-20.746,3.913
			c-3.855,0.196-8.743-1.62-10.203,3.688c-0.911,3.312,3.538,7.192,6.206,8.16c6.616,2.4,13.728,1.957,20.497,0.532
			c12.1-2.547,23.163-8.965,30.691-18.926c1.565-2.071,2.584-4.082,3.314-6.567c0.802-2.725,2.7-4.734,3.381-7.458
			c1.141-4.561,3.982-8.595,4.159-13.465c0.084-2.299-1.735-6.863-4.923-4.613c-1.383,0.976-2.345,2.122-2.892,3.774
			c0.079-0.237-2.461,1.738-1.916,1.302c-1.472,1.178-2.816,3.109-3.988,4.591c-4.329,5.472-7.836,10.484-13.575,14.614
			c-6.199,4.462-13.087,10.054-20.622,11.861c-5.201,1.248-10.357-0.222-15.423,1.951c-3.921,1.683-5.338,6.848-3.562,10.51
			c5.667,11.677,20.116,8.603,30,5.381c11.641-3.794,22.475-11.34,27.844-22.635c1.376-2.896-2.935-5.435-4.318-2.523
			c-5.798,12.2-17.237,17.924-29.487,21.824c-3.304,1.053-6.637,1.457-10.098,1.392c-3.449-0.066-11.712-3.21-9.336-8.379
			c1.212-2.637,6.488-2.124,8.754-2.141c2.939-0.021,5.735-0.266,8.595-0.951c5.632-1.352,11.011-5.613,15.717-8.807
			c4.918-3.337,9.777-6.59,13.561-11.224c3.558-4.356,6.44-10.124,11.276-13.186c0.579-0.367,0.935-0.846,1.149-1.494
			c0.797-2.41-1.723-1.305-2.04,0.251c-0.428,2.09-1.224,3.966-1.918,5.969c-1.589,4.582-4.126,8.609-5.493,13.258
			c-1.78,6.055-8.245,9.525-12.601,13.355c-4.883,4.294-11.353,6.108-17.58,7.513c-4.135,0.933-8.024,1.115-12.228,0.768
			c-1.954-0.162-5.006-0.567-6.542-1.972c-1.87-1.708,0.417-1.887,1.802-1.567c2.014,0.463,4.087-0.068,6.124,0.079
			c3.182,0.229,6.394,0.398,9.501-0.399c5.469-1.405,10.281-4.514,14.994-7.494c4.784-3.024,9.228-6.475,13.189-10.521
			c4.656-4.754,7.941-10.928,12.159-16.075c-1.393-0.811-2.785-1.622-4.179-2.432c-2.435,6.17-7.242,11.001-11.352,16.082
			c-4.571,5.65-9.723,10.874-15.573,15.199c1.01,1.31,2.02,2.618,3.029,3.927c4.612-5.062,9.137-10.228,13.879-15.169
			c2.53-2.635,4.813-5.518,7.193-8.286c1.33-1.548,4.473-6.327,6.515-6.984c-1.025-1.025-2.051-2.05-3.076-3.075
			c-1.393,4.683-4.312,9.293-6.793,13.46c-1.181,1.983-2.444,3.906-3.768,5.796c-1.334,1.905-4.068,5.987-6.335,6.871
			c1.056,0.804,2.11,1.607,3.165,2.411c0.398-5.274,4.535-8.932,7.423-12.969c2.925-4.092,6.68-10.206,11.438-12.391
			c-1.254-0.72-2.508-1.439-3.762-2.159c-0.131,1.944-1.975,4.159-3.021,5.637c-2.088,2.951-4.209,5.882-6.431,8.731
			c-3.556,4.562-7.284,8.898-11.652,12.695c-0.398,0.28-0.796,0.562-1.194,0.843c0.749,1.541,1.297,1.743,1.642,0.606
			c0.47-0.852,1.147-1.59,1.775-2.323c1.122-1.31,2.359-2.522,3.557-3.763c3.671-3.802,8.774-9.548,13.808-11.381
			c-1.056-0.804-2.11-1.607-3.165-2.411c-0.19,1.83-2.681,4.155-3.729,5.53c-2.008,2.632-4.107,5.147-6.4,7.532
			c-2.191,2.279-4.526,4.416-7.062,6.305c-1.429,1.065-6.765,3.115-7.176,4.017c1.174-2.574,3.89-4.904,6.104-6.59
			c4.172-3.177,8.6-7.062,14.009-7.707c-0.72-0.413-1.439-0.825-2.158-1.238c0.812,1.609-4.099,7.105-5.149,8.388
			c-3.56,4.344-7.729,8.119-12.522,11.05c-2.041,1.248-4.311,2.18-6.561,2.979c-2.803,0.996-2.747,0.982-0.878-1.04
			c3.703-4.008,9.224-5.47,14.264-6.912c3.216-0.921,2.32,0.477,1.017,2.467c-1.489,2.273-3.82,4.046-6.044,5.525
			c-4.324,2.877-9.555,4.24-14.701,4.326c-2.076,0.034-4.284-0.337-6.275-0.916c-4.815-1.4,6.216-6.147,6.363-6.202
			c3.035-1.12,6.469-1.548,9.66-1.912c1.782-0.204,7.882-1.158,9.046,0.989c0-0.841,0-1.683,0-2.523
			c-3.088,5.281-23.913,10.803-26.949,3.689c-0.13,1.01-0.261,2.02-0.391,3.029c3.563-3.884,8.323-4.667,13.3-5.652
			c4.959-0.981,10.293-1.598,14.807,0.777c-0.299-1.14-0.598-2.28-0.896-3.42c-3.025,4.239-8.543,3.946-13.021,5.601
			c-5.252,1.94-11.405,0.499-16.384-1.236c0.582,1.025,1.164,2.051,1.746,3.076c0.439-2.65,7.802-3.289,9.917-3.478
			c4.08-0.363,8.837-0.168,12.347,2.039c-0.383-0.941-0.766-1.883-1.149-2.824c-1.113,3.107-10.267,2.656-12.717,2.65
			c-3.464-0.008-11.33,0.114-11.939-4.185c-0.383,0.941-0.766,1.883-1.149,2.823c3.919-2.792,8.212-3.637,12.936-4.062
			c1.899-0.171,15.528,0.148,11.682,4.473c-1.813,2.038-5.021,3.11-7.577,3.767c-3.196,0.821-16.714,1.206-15.59-5.051
			c1.009-5.62,13.322-3.413,16.674-1.823c1.659,0.787,3.675,2.11,3.871,4.157c0.263,2.738-5.039,3.422-6.715,3.81
			c-4.039,0.935-10.006-0.089-12.537-3.607c-3.079-4.282,10.697-3.629,12.733-3.187c1.773,0.385,8.917,2.12,6.263,4.904
			c-3.468,3.639-12.617,2.953-16.767,1.014c-5.821-2.719-0.208-4.04,2.769-4.142c2.352-0.08,5.173,0.977,7.286,1.908
			c3.041,1.342,0.045,2.71-1.937,3.283c-2.772,0.802-6.437-0.587-9.08-1.468c0.072-3.111,1.504-4.529,4.296-4.254
			c1.906,0.098,3.675,0.646,5.307,1.643c0.864,0.23,1.398,0.848,1.603,1.853c-2.135,0.432-6.366,0.879-7.375-1.833
			c-0.214,0.812-0.429,1.622-0.643,2.433c1.814-1.587,3.257-1.688,5.496-1.613c1.996,0.066,5.232,1.449,2.127,2.5
			c-0.669,0.227-9.042-0.519-9.189-1.672c-1.055,0.804-2.11,1.607-3.165,2.411c0.162,0.039,0.324,0.078,0.486,0.118
			C284.493,430.131,285.822,425.31,282.69,424.548L282.69,424.548z"/>
	</g>
</g>
<g opacity="0.1">
	<g>
		<path fill="#F7A499" d="M280.033,430.59c0.977,0.132,2.251,1.062,3.276,1.306c1.542,0.368,3.091,0.555,4.675,0.562
			c4.631,0.024,8.923-0.254,13.391-1.615c2.699-0.823,11.666-3.846,6.054-7.887c-3.293-2.372-8.96-1.554-12.759-1.453
			c-3.166,0.083-6.166,0.66-9.276,1.301c-2.479,0.511-5.66-0.214-7.564,1.796c-0.806,0.85-0.922,2.003-0.391,3.029
			c3.506,6.774,14.976,6.289,20.546,2.953c2.143-1.283,2.752-4.753,0.523-6.264c-3.515-2.384-8.396-3.508-12.554-3.895
			c-3.646-0.339-7.53,0.823-8.718,4.527c-1.142,3.56,3.843,6.245,6.354,7.304c4.377,1.845,10.417,0.271,14.864-0.517
			c4.529-0.803,10.166-3.225,13.921-5.814c1.021-0.703,1.758-2.271,0.897-3.42c-2.448-3.269-6.305-2.536-9.843-1.601
			c-2.235,0.591-4.526,1.437-6.675,2.275c-3.468,1.354-7.32,0.933-10.904,1.951c-2.817,0.801-2.087,4.713,0.665,4.911
			c9.621,0.694,17.915-1.236,26.569-5.511c7.575-3.742,12.123-10.881,14.281-18.852c0.611-2.262-2.542-4.469-4.179-2.433
			c-5.816,7.232-13.034,14.329-22.205,16.828c-3.825,1.043-7.601,2.135-11.505,2.853c-3.409,0.628-6.426-1.186-9.704-0.311
			c-2.538,0.678-2.223,4.011,0,4.822c9.606,3.507,21.214-0.014,30.401-3.151c10.019-3.422,19.108-12.723,24.071-21.932
			c1.53-2.838-2.787-5.362-4.316-2.523c-4.445,8.247-12.387,16.149-21.084,19.634c-8.068,3.231-19.251,6.251-27.743,3.15
			c0,1.607,0,3.215,0,4.822c1.218-0.325,3.888,0.679,5.238,0.847c1.389,0.173,3.101-0.352,4.465-0.536
			c4.929-0.67,10.07-2.205,14.745-3.871c8.533-3.042,15.617-10.189,21.17-17.097c-1.393-0.811-2.785-1.621-4.179-2.433
			c-4.352,16.078-20.739,21.795-36.028,20.692c0.222,1.637,0.443,3.273,0.665,4.911c2.438-0.693,4.769-0.795,7.281-0.831
			c2.267-0.033,4.179-1.425,6.286-2.033c1.189-0.344,7.385-3.157,8.207-2.061c0.3-1.14,0.599-2.28,0.897-3.42
			c-2.98,2.054-7.735,3.944-11.116,4.939c-4.507,1.326-12.303,2.824-16.151-0.621c1.083-0.473,2.206-0.64,3.37-0.502
			c1.365,0.087,2.7,0.326,4.006,0.716c1.233,0.34,2.409,0.823,3.527,1.452c2.216,1.133,0.477-0.431,1.238-0.887
			c-3.018,1.808-11.013,2.182-12.97-1.6c-0.13,1.01-0.261,2.02-0.391,3.029c0.326-0.344,3.068-0.117,3.743-0.232
			c2.457-0.422,5.701-1.664,8.145-1.391c2.685,0.3,5.529-0.134,8.238-0.009c0.614,0.029,1.224,0.091,1.831,0.185
			c3.331,0.512-2.157-0.726-0.34-1.365c-1.725,0.607-3.698,0.974-5.48,1.365c-3.186,0.7-6.263,0.892-9.517,0.771
			c-2.583-0.096-4.244-1.367-6.622-1.69C278.211,425.34,276.851,430.157,280.033,430.59L280.033,430.59z"/>
	</g>
</g>
<g opacity="0.1">
	<g>
		<path fill="#F7A499" d="M281.004,430.828c16.254,5.385,32.885-5.555,44.306-16.156c2.368-2.197-1.176-5.726-3.535-3.535
			c-10.102,9.377-24.987,19.658-39.442,14.869C279.264,424.989,277.959,429.818,281.004,430.828L281.004,430.828z"/>
	</g>
</g>
</svg>
